<?xml version="1.0" standalone="no"?><!DOCTYPE svg PUBLIC "-//W3C//DTD SVG 1.1//EN" "http://www.w3.org/Graphics/SVG/1.1/DTD/svg11.dtd"><svg t="1511956053925" class="icon" style="" viewBox="0 0 1024 1024" version="1.1" xmlns="http://www.w3.org/2000/svg" p-id="3232" xmlns:xlink="http://www.w3.org/1999/xlink" width="16" height="16"><defs><style type="text/css"></style></defs><path d="M578.2 561.7 566.5 601.2 605.5 589.2 687.7 507 660.3 479.6Z" p-id="3233"></path><path d="M552.7 334.8 552.7 342.8 561.2 342.8Z" p-id="3234"></path><path d="M512 16c-273.5 0-496 222.5-496 496s222.5 496 496 496 496-222.5 496-496S785.5 16 512 16zM627.9 702.6c0 26.8-17.3 53.9-56 53.9l-271.3-0.2c-27.3 0-48.6-21.9-48.6-49.8l0-388.4c0-28.3 21.1-50.5 48-50.5l236.2 0 91.6 86.4 0 63.9c0 10.4-8.4 18.8-18.8 18.8-10.4 0-18.8-8.4-18.8-18.8l0-37.6-57.7 0c-10.4 0-17.5-8.4-17.5-18.8l0-56.4L300 305.1c-6.8 0-10.5 6.5-10.5 12.9l0 388.4c0 7 4.7 12.2 11.1 12.2l271.3 0.2c7.9 0 18.4-1.7 18.4-16.3l0-21.5c0-10.4 8.4-18.8 18.8-18.8 10.4 0 18.8 8.4 18.8 18.8L627.9 702.6zM344.3 493.1l150.4 0c10.4 0 18.8 8.4 18.8 18.8 0 10.4-8.4 18.8-18.8 18.8L344.3 530.7c-10.4 0-18.8-8.4-18.8-18.8C325.5 501.5 333.9 493.1 344.3 493.1zM325.5 399.2c0-10.4 8.4-18.8 18.8-18.8l112.8 0c10.4 0 18.8 8.4 18.8 18.8 0 10.4-8.4 18.8-18.8 18.8L344.3 418C333.9 417.9 325.5 409.5 325.5 399.2zM762.1 485.7l-136.6 136.6-74.7 21.9c-1.4 0-2.7-0.8-4.1-1-0.5 0-0.8 0.3-1.3 0.3L344.3 643.5c-10.4 0-18.8-8.4-18.8-18.8s8.4-18.8 18.8-18.8l181.6 0 18.9-64.1 136.6-136.6c12.9-12.9 35.4-12.8 48.2 0l32.4 32.4C775.3 450.9 775.3 472.5 762.1 485.7z" p-id="3235"></path><path d="M686.8 453.1 714.2 480.5 733 461.7 705.6 434.3Z" p-id="3236"></path></svg>