<?xml version="1.0" standalone="no"?><!DOCTYPE svg PUBLIC "-//W3C//DTD SVG 1.1//EN" "http://www.w3.org/Graphics/SVG/1.1/DTD/svg11.dtd"><svg t="1511955731952" class="icon" style="" viewBox="0 0 1024 1024" version="1.1" xmlns="http://www.w3.org/2000/svg" p-id="1855" xmlns:xlink="http://www.w3.org/1999/xlink" width="32" height="32"><defs><style type="text/css"></style></defs><path d="M522.24 35.84C259.072 35.84 46.08 249.344 46.08 512c0 263.168 213.504 476.16 476.16 476.16 263.168 0 476.16-213.504 476.16-476.16 0.512-262.656-212.992-476.16-476.16-476.16z m185.344 695.296c-33.792 33.792-158.72 1.536-282.624-121.856-123.392-123.392-155.136-248.832-121.344-282.112 29.184-29.184 64.512-79.872 117.76-13.824 53.248 66.048 27.136 84.48-3.072 114.688-20.992 20.992 23.04 74.24 68.608 119.808 46.08 45.568 98.816 89.6 119.808 68.608 30.208-30.208 48.64-56.32 114.688-3.072 66.56 53.248 15.36 89.088-13.824 117.76z" p-id="1856"></path></svg>