<?xml version="1.0" standalone="no"?><!DOCTYPE svg PUBLIC "-//W3C//DTD SVG 1.1//EN" "http://www.w3.org/Graphics/SVG/1.1/DTD/svg11.dtd"><svg t="1511955941796" class="icon" style="" viewBox="0 0 1025 1024" version="1.1" xmlns="http://www.w3.org/2000/svg" p-id="2518" xmlns:xlink="http://www.w3.org/1999/xlink" width="16.015625" height="16"><defs><style type="text/css"></style></defs><path d="M514.392043 491.168159" p-id="2519"></path><path d="M505.27849 16.464069c-278.223923 0-503.768469 225.544546-503.768469 503.767461 0 278.223923 225.544546 503.768469 503.768469 503.768469 278.222915 0 503.768469-225.544546 503.768469-503.768469C1009.04696 242.008615 783.501406 16.464069 505.27849 16.464069zM299.065844 326.01438l412.428316 0c18.786559 0 35.555052 8.185162 47.331806 21.038486L505.491184 500.954064 256.567518 342.363535C267.930982 332.315543 282.723746 326.01438 299.065844 326.01438zM234.651042 390.428174c0-7.331365 1.492885-14.264559 3.754892-20.832849l179.872957 114.610406L234.651042 643.31741 234.651042 390.428174zM711.494161 714.448681 299.065844 714.448681c-24.932486 0-46.352005-14.343185-57.033036-35.111521 1.152172-0.563486 2.346682-1.084635 3.356723-1.980769l201.705767-174.774368 49.394224 31.463479c0.128019 0.082658 0.284263 0.09677 0.412282 0.189509 0.896134 0.519133 1.821501 0.896134 2.788197 1.243903 0.454619 0.161284 0.866901 0.409258 1.322529 0.512077 1.294304 0.355833 2.60272 0.544333 3.940369 0.575582 0.127011 0 0.212693 0.036289 0.313496 0.036289l0.014112 0 0.014112 0c0.114915 0 0.227814-0.042337 0.356841-0.042337 1.279183-0.040321 2.544255-0.185477 3.783117-0.519133 0.455627-0.109875 0.866901-0.348777 1.308416-0.509053 0.910246-0.319544 1.820493-0.657232 2.660178-1.137052 0.128019-0.078626 0.256038-0.092738 0.384057-0.174388l58.612611-35.602429L771.938353 671.536057C763.063702 696.478623 739.48197 714.448681 711.494161 714.448681zM775.907955 631.634402 601.792835 480.760303l172.36418-104.703538c1.067498 4.632882 1.749931 9.401848 1.749931 14.367378L775.906947 631.634402z" p-id="2520"></path></svg>